<svg version="1.1" id="Layer_1" xmlns="http://www.w3.org/2000/svg" xmlns:xlink="http://www.w3.org/1999/xlink" x="0px" y="0px"
	 width="100%" viewBox="0 0 106 140" enable-background="new 0 0 106 140" xml:space="preserve">
<path fill="#FDFEFF" opacity="1.000000" stroke="none" 
	d="
M59.000000,141.000000 
	C39.333332,141.000000 20.166666,141.000000 1.000000,141.000000 
	C1.000000,94.333336 1.000000,47.666668 1.000000,1.000000 
	C36.333332,1.000000 71.666664,1.000000 107.000000,1.000000 
	C107.000000,47.666668 107.000000,94.333336 107.000000,141.000000 
	C91.166664,141.000000 75.333336,141.000000 59.000000,141.000000 
M68.025215,59.302959 
	C66.591042,58.767128 65.156868,58.231297 63.999794,57.078514 
	C71.058792,52.420704 78.168907,47.837067 85.131653,43.039562 
	C86.449936,42.131237 88.016525,40.395435 88.052513,39.004791 
	C88.305122,29.244085 88.186394,19.473768 88.186394,8.914224 
	C86.138138,10.129037 84.739357,10.900844 83.398575,11.762853 
	C70.809921,19.856277 58.698978,28.854200 45.505592,35.795807 
	C34.411697,41.632786 29.832508,49.134022 31.870575,61.353607 
	C32.753994,66.650307 32.531490,72.131470 33.492996,77.951767 
	C39.198875,80.301445 44.904751,82.651131 50.173180,85.590187 
	C43.207554,90.112366 36.209064,94.585396 29.306057,99.201218 
	C28.036943,100.049843 26.263802,101.455734 26.234682,102.641518 
	C25.988899,112.650421 26.094496,122.667953 26.094496,132.760025 
	C27.129215,132.636017 27.513540,132.700806 27.756392,132.545044 
	C45.232288,121.335335 62.720173,110.143707 80.108398,98.799339 
	C81.226181,98.070076 82.159592,96.155693 82.173698,94.782288 
	C82.272652,85.152069 82.107277,75.519135 81.848640,65.217171 
	C77.405891,63.434132 72.963150,61.651093 68.025215,59.302959 
z"/>
<path fill="#19A5D9" opacity="1.000000" stroke="none" 
	d="
M82.026428,65.887070 
	C82.107277,75.519135 82.272652,85.152069 82.173698,94.782288 
	C82.159592,96.155693 81.226181,98.070076 80.108398,98.799339 
	C62.720173,110.143707 45.232288,121.335335 27.756392,132.545044 
	C27.513540,132.700806 27.129215,132.636017 26.094496,132.760025 
	C26.094496,122.667953 25.988899,112.650421 26.234682,102.641518 
	C26.263802,101.455734 28.036943,100.049843 29.306057,99.201218 
	C36.209064,94.585396 43.207554,90.112366 50.691151,85.208344 
	C53.457329,83.435005 55.701256,82.036530 57.954514,80.653252 
	C65.976776,75.728394 74.002197,70.808716 82.026428,65.887070 
z"/>
<path fill="#19A5D9" opacity="1.000000" stroke="none" 
	d="
M32.811317,77.528839 
	C32.531490,72.131470 32.753994,66.650307 31.870575,61.353607 
	C29.832508,49.134022 34.411697,41.632786 45.505592,35.795807 
	C58.698978,28.854200 70.809921,19.856277 83.398575,11.762853 
	C84.739357,10.900844 86.138138,10.129037 88.186394,8.914224 
	C88.186394,19.473768 88.305122,29.244085 88.052513,39.004791 
	C88.016525,40.395435 86.449936,42.131237 85.131653,43.039562 
	C78.168907,47.837067 71.058792,52.420704 63.526138,57.465458 
	C56.014309,62.553165 48.976139,67.253929 41.958878,71.978333 
	C41.979790,72.001976 41.986423,71.939201 41.635406,71.890564 
	C40.691490,72.214706 40.098587,72.587479 39.173252,72.946320 
	C36.830986,74.464539 34.821152,75.996689 32.811317,77.528839 
z"/>
<path fill="#1E6989" opacity="1.000000" stroke="none" 
	d="
M33.152157,77.740303 
	C34.821152,75.996689 36.830986,74.464539 39.540237,72.942581 
	C40.821911,72.614922 41.404167,72.277061 41.986423,71.939201 
	C41.986423,71.939201 41.979790,72.001976 42.327984,71.965744 
	C51.290920,67.909027 59.905659,63.888542 68.520401,59.868053 
	C72.963150,61.651093 77.405891,63.434132 81.937531,65.552124 
	C74.002197,70.808716 65.976776,75.728394 57.954514,80.653252 
	C55.701256,82.036530 53.457329,83.435005 50.909874,84.913666 
	C44.904751,82.651131 39.198875,80.301445 33.152157,77.740303 
z"/>
<path fill="#174B65" opacity="1.000000" stroke="none" 
	d="
M68.272812,59.585506 
	C59.905659,63.888542 51.290920,67.909027 42.307076,71.942108 
	C48.976139,67.253929 56.014309,62.553165 63.387589,57.773933 
	C65.156868,58.231297 66.591042,58.767128 68.272812,59.585506 
z"/>
<path fill="#174B65" opacity="1.000000" stroke="none" 
	d="
M41.635406,71.890564 
	C41.404167,72.277061 40.821911,72.614922 39.872673,72.956512 
	C40.098587,72.587479 40.691490,72.214706 41.635406,71.890564 
z"/>
</svg>